<?xml version="1.0" encoding="UTF-8" standalone="no"?>
<!DOCTYPE svg PUBLIC "-//W3C//DTD SVG 1.1//EN" "http://www.w3.org/Graphics/SVG/1.1/DTD/svg11.dtd">
<svg width="100%" height="100%" viewBox="0 0 398 130" version="1.1" xmlns="http://www.w3.org/2000/svg" xmlns:xlink="http://www.w3.org/1999/xlink" xml:space="preserve" xmlns:serif="http://www.serif.com/" style="fill-rule:evenodd;clip-rule:evenodd;stroke-linejoin:round;stroke-miterlimit:2;">
    <g id="Header" transform="matrix(1.11917,0,0,1.06614,-293.06,-214.603)">
        <rect x="261.855" y="201.29" width="355.484" height="121.935" style="fill:none;"/>
        <g transform="matrix(0.893519,0,0,0.937965,265.122,242.092)">
            <g transform="matrix(64,0,0,64,146.799,51.5637)">
                <path d="M0.141,-0.702C0.144,-0.703 0.147,-0.703 0.15,-0.7C0.153,-0.697 0.154,-0.693 0.154,-0.689L0.154,-0.525L0.322,-0.525C0.332,-0.525 0.337,-0.52 0.337,-0.51L0.337,-0.476C0.337,-0.466 0.332,-0.461 0.322,-0.461L0.154,-0.461L0.154,-0.118C0.154,-0.091 0.161,-0.073 0.175,-0.064C0.19,-0.055 0.21,-0.051 0.236,-0.051C0.251,-0.051 0.267,-0.052 0.283,-0.055C0.3,-0.058 0.315,-0.061 0.328,-0.064C0.335,-0.065 0.34,-0.062 0.342,-0.055L0.351,-0.018C0.352,-0.013 0.349,-0.009 0.343,-0.006C0.334,-0.003 0.318,0.001 0.297,0.006C0.275,0.011 0.25,0.013 0.221,0.013C0.171,0.013 0.134,0.002 0.111,-0.021C0.087,-0.043 0.075,-0.078 0.075,-0.126L0.075,-0.675C0.075,-0.682 0.079,-0.686 0.087,-0.688L0.141,-0.702Z" style="fill:#404040;fill-rule:nonzero;"/>
            </g>
            <g transform="matrix(64,0,0,64,170.031,51.5637)">
                <path d="M0.281,-0.538C0.334,-0.538 0.376,-0.53 0.407,-0.515C0.439,-0.5 0.463,-0.478 0.48,-0.449C0.493,-0.426 0.502,-0.4 0.506,-0.37C0.51,-0.34 0.512,-0.308 0.512,-0.273L0.512,-0.224C0.512,-0.221 0.51,-0.219 0.507,-0.216C0.504,-0.213 0.502,-0.211 0.499,-0.211L0.132,-0.211C0.132,-0.183 0.135,-0.161 0.14,-0.144C0.145,-0.127 0.152,-0.112 0.163,-0.099C0.178,-0.08 0.197,-0.068 0.222,-0.061C0.246,-0.054 0.276,-0.051 0.311,-0.051C0.342,-0.051 0.368,-0.053 0.389,-0.058C0.41,-0.063 0.433,-0.069 0.456,-0.076C0.459,-0.077 0.461,-0.078 0.462,-0.078L0.465,-0.078C0.469,-0.078 0.472,-0.075 0.474,-0.07L0.485,-0.031C0.486,-0.026 0.486,-0.023 0.484,-0.021C0.481,-0.019 0.478,-0.017 0.475,-0.016C0.455,-0.007 0.43,-0 0.399,0.005C0.368,0.01 0.336,0.013 0.303,0.013C0.254,0.013 0.213,0.007 0.181,-0.004C0.148,-0.015 0.122,-0.033 0.102,-0.056C0.083,-0.079 0.069,-0.107 0.061,-0.141C0.053,-0.176 0.049,-0.216 0.049,-0.262C0.049,-0.304 0.052,-0.342 0.058,-0.376C0.063,-0.41 0.074,-0.439 0.091,-0.463C0.108,-0.487 0.131,-0.505 0.162,-0.519C0.192,-0.532 0.232,-0.538 0.281,-0.538ZM0.279,-0.475C0.239,-0.475 0.209,-0.469 0.188,-0.457C0.167,-0.444 0.152,-0.422 0.143,-0.39C0.138,-0.371 0.135,-0.353 0.134,-0.334C0.133,-0.315 0.132,-0.296 0.131,-0.278L0.429,-0.278C0.428,-0.297 0.427,-0.316 0.426,-0.335C0.425,-0.353 0.421,-0.371 0.416,-0.39C0.407,-0.422 0.393,-0.444 0.372,-0.457C0.35,-0.469 0.32,-0.475 0.279,-0.475Z" style="fill:#404040;fill-rule:nonzero;"/>
            </g>
            <g transform="matrix(64,0,0,64,205.487,51.5637)">
                <path d="M0.325,-0.538C0.328,-0.538 0.331,-0.537 0.334,-0.536C0.337,-0.534 0.339,-0.53 0.339,-0.523L0.339,-0.48C0.339,-0.472 0.336,-0.468 0.33,-0.468C0.297,-0.468 0.266,-0.467 0.238,-0.464C0.21,-0.461 0.182,-0.456 0.154,-0.449L0.154,-0.015C0.154,-0.005 0.149,-0 0.14,-0L0.089,-0C0.08,-0 0.075,-0.005 0.075,-0.015L0.075,-0.432C0.075,-0.454 0.078,-0.47 0.084,-0.479C0.089,-0.488 0.101,-0.497 0.118,-0.505C0.129,-0.51 0.142,-0.514 0.158,-0.519C0.174,-0.523 0.191,-0.526 0.207,-0.529C0.225,-0.532 0.241,-0.534 0.258,-0.536C0.274,-0.537 0.288,-0.538 0.3,-0.538L0.325,-0.538Z" style="fill:#404040;fill-rule:nonzero;"/>
            </g>
            <g transform="matrix(64,0,0,64,227.375,51.5637)">
                <path d="M0.704,-0.538C0.763,-0.538 0.807,-0.527 0.835,-0.506C0.862,-0.485 0.876,-0.447 0.876,-0.394L0.876,-0.015C0.876,-0.005 0.871,-0 0.861,-0L0.812,-0C0.801,-0 0.796,-0.005 0.796,-0.015L0.796,-0.385C0.796,-0.418 0.789,-0.442 0.776,-0.455C0.762,-0.468 0.737,-0.474 0.702,-0.474C0.681,-0.474 0.661,-0.473 0.641,-0.47C0.62,-0.468 0.601,-0.466 0.584,-0.463C0.567,-0.46 0.552,-0.456 0.54,-0.453C0.527,-0.45 0.519,-0.447 0.514,-0.446L0.514,-0.015C0.514,-0.005 0.509,-0 0.5,-0L0.451,-0C0.441,-0 0.436,-0.005 0.436,-0.015L0.436,-0.385C0.436,-0.418 0.429,-0.442 0.415,-0.455C0.401,-0.468 0.376,-0.474 0.341,-0.474C0.32,-0.474 0.3,-0.473 0.28,-0.47C0.259,-0.468 0.241,-0.466 0.224,-0.463C0.206,-0.46 0.192,-0.456 0.18,-0.453C0.167,-0.45 0.159,-0.447 0.154,-0.446L0.154,-0.015C0.154,-0.005 0.149,-0 0.14,-0L0.09,-0C0.08,-0 0.075,-0.005 0.075,-0.015L0.075,-0.43C0.075,-0.44 0.075,-0.449 0.076,-0.456C0.077,-0.463 0.079,-0.47 0.082,-0.476C0.085,-0.482 0.091,-0.487 0.098,-0.492C0.105,-0.497 0.114,-0.501 0.127,-0.505C0.14,-0.51 0.155,-0.514 0.173,-0.518C0.192,-0.522 0.211,-0.526 0.231,-0.529C0.25,-0.532 0.27,-0.534 0.29,-0.536C0.309,-0.537 0.327,-0.538 0.343,-0.538C0.406,-0.538 0.452,-0.525 0.479,-0.5C0.493,-0.505 0.51,-0.51 0.529,-0.515C0.548,-0.52 0.569,-0.524 0.59,-0.527C0.611,-0.53 0.631,-0.533 0.651,-0.535C0.671,-0.537 0.689,-0.538 0.704,-0.538Z" style="fill:#404040;fill-rule:nonzero;"/>
            </g>
            <g transform="matrix(64,0,0,64,287.471,51.5637)">
                <path d="M0.154,-0.525C0.164,-0.525 0.169,-0.52 0.169,-0.51L0.169,-0.015C0.169,-0.005 0.164,-0 0.154,-0L0.105,-0C0.095,-0 0.09,-0.005 0.09,-0.015L0.09,-0.51C0.09,-0.52 0.095,-0.525 0.105,-0.525L0.154,-0.525ZM0.154,-0.752C0.164,-0.752 0.169,-0.747 0.169,-0.737L0.169,-0.629C0.169,-0.62 0.164,-0.615 0.154,-0.615L0.105,-0.615C0.095,-0.615 0.09,-0.62 0.09,-0.629L0.09,-0.737C0.09,-0.747 0.095,-0.752 0.105,-0.752L0.154,-0.752Z" style="fill:#404040;fill-rule:nonzero;"/>
            </g>
            <g transform="matrix(64,0,0,64,303.599,51.5637)">
                <path d="M0.343,-0.538C0.402,-0.538 0.446,-0.527 0.473,-0.506C0.501,-0.485 0.515,-0.447 0.515,-0.394L0.515,-0.015C0.515,-0.005 0.51,-0 0.5,-0L0.451,-0C0.441,-0 0.436,-0.005 0.436,-0.015L0.436,-0.385C0.436,-0.418 0.429,-0.442 0.415,-0.455C0.401,-0.468 0.376,-0.474 0.341,-0.474C0.32,-0.474 0.3,-0.473 0.28,-0.47C0.259,-0.468 0.241,-0.466 0.224,-0.463C0.206,-0.46 0.192,-0.456 0.18,-0.453C0.167,-0.45 0.159,-0.447 0.154,-0.446L0.154,-0.015C0.154,-0.005 0.149,-0 0.14,-0L0.09,-0C0.08,-0 0.075,-0.005 0.075,-0.015L0.075,-0.43C0.075,-0.44 0.075,-0.449 0.076,-0.456C0.077,-0.463 0.079,-0.47 0.082,-0.476C0.085,-0.482 0.091,-0.487 0.098,-0.492C0.105,-0.497 0.114,-0.501 0.127,-0.505C0.14,-0.51 0.155,-0.514 0.173,-0.518C0.192,-0.522 0.211,-0.526 0.231,-0.529C0.25,-0.532 0.27,-0.534 0.29,-0.536C0.309,-0.537 0.327,-0.538 0.343,-0.538Z" style="fill:#404040;fill-rule:nonzero;"/>
            </g>
            <g transform="matrix(64,0,0,64,340.591,51.5637)">
                <path d="M0.293,-0.537C0.329,-0.537 0.359,-0.535 0.382,-0.531C0.405,-0.526 0.424,-0.52 0.439,-0.512C0.452,-0.505 0.462,-0.498 0.469,-0.489C0.475,-0.48 0.481,-0.47 0.484,-0.459C0.487,-0.448 0.489,-0.437 0.49,-0.426C0.491,-0.415 0.491,-0.403 0.491,-0.391L0.491,-0.104C0.491,-0.087 0.49,-0.072 0.488,-0.061C0.485,-0.05 0.481,-0.04 0.475,-0.033C0.469,-0.026 0.461,-0.02 0.45,-0.015C0.439,-0.01 0.425,-0.006 0.408,-0.002C0.393,0.001 0.375,0.005 0.352,0.008C0.329,0.011 0.305,0.013 0.278,0.013C0.257,0.013 0.233,0.012 0.206,0.01C0.179,0.008 0.154,0.002 0.131,-0.009C0.108,-0.019 0.088,-0.035 0.073,-0.058C0.057,-0.08 0.049,-0.111 0.049,-0.152C0.049,-0.184 0.054,-0.21 0.063,-0.229C0.072,-0.248 0.085,-0.264 0.102,-0.275C0.119,-0.285 0.138,-0.294 0.161,-0.299C0.183,-0.304 0.207,-0.309 0.232,-0.313L0.411,-0.34L0.411,-0.387C0.411,-0.403 0.409,-0.417 0.406,-0.43C0.403,-0.443 0.392,-0.452 0.375,-0.459C0.366,-0.463 0.354,-0.466 0.339,-0.468C0.324,-0.47 0.306,-0.471 0.284,-0.471C0.245,-0.471 0.21,-0.467 0.179,-0.46C0.147,-0.453 0.12,-0.446 0.099,-0.441C0.09,-0.438 0.085,-0.441 0.083,-0.448L0.074,-0.493C0.073,-0.498 0.074,-0.501 0.077,-0.503C0.08,-0.505 0.082,-0.506 0.084,-0.507C0.092,-0.509 0.103,-0.512 0.117,-0.516C0.131,-0.519 0.147,-0.523 0.166,-0.526C0.185,-0.529 0.205,-0.531 0.227,-0.534C0.248,-0.536 0.27,-0.537 0.293,-0.537ZM0.233,-0.247C0.218,-0.245 0.204,-0.242 0.192,-0.239C0.179,-0.236 0.169,-0.231 0.16,-0.224C0.151,-0.217 0.143,-0.208 0.139,-0.197C0.134,-0.186 0.131,-0.171 0.131,-0.153C0.131,-0.128 0.136,-0.108 0.145,-0.095C0.154,-0.081 0.166,-0.07 0.181,-0.064C0.195,-0.057 0.211,-0.052 0.228,-0.051C0.245,-0.05 0.262,-0.049 0.279,-0.049C0.301,-0.049 0.323,-0.051 0.346,-0.054C0.369,-0.057 0.391,-0.062 0.412,-0.069L0.412,-0.275L0.233,-0.247Z" style="fill:#404040;fill-rule:nonzero;"/>
            </g>
            <g transform="matrix(64,0,0,64,376.047,51.5637)">
                <path d="M0.141,-0.752C0.144,-0.753 0.147,-0.753 0.15,-0.75C0.153,-0.747 0.154,-0.744 0.154,-0.74L0.154,-0.095C0.154,-0.077 0.159,-0.066 0.169,-0.061C0.179,-0.056 0.189,-0.054 0.199,-0.054C0.206,-0.054 0.213,-0.054 0.22,-0.055C0.226,-0.056 0.231,-0.057 0.234,-0.058L0.238,-0.059C0.243,-0.059 0.245,-0.057 0.246,-0.052L0.253,-0.018C0.254,-0.015 0.254,-0.013 0.254,-0.012C0.254,-0.009 0.253,-0.007 0.252,-0.006C0.25,-0.005 0.248,-0.003 0.246,-0.002C0.241,0.001 0.232,0.003 0.22,0.006C0.208,0.009 0.193,0.01 0.175,0.01C0.145,0.01 0.121,0.002 0.102,-0.014C0.084,-0.029 0.075,-0.056 0.075,-0.093L0.075,-0.723C0.075,-0.731 0.079,-0.736 0.087,-0.738L0.141,-0.752Z" style="fill:#404040;fill-rule:nonzero;"/>
            </g>
        </g>
        <g transform="matrix(1.14043,0,0,1.00874,14.509,190.973)">
            <path d="M317.177,30.677C317.177,28.096 315.411,26 313.235,26L220.83,26C218.655,26 216.889,28.096 216.889,30.677L216.889,110.656C216.889,113.238 218.655,115.334 220.83,115.334L313.235,115.334C315.411,115.334 317.177,113.238 317.177,110.656L317.177,30.677Z" style="fill:#349c0d;"/>
            <clipPath id="_clip1">
                <path d="M317.177,30.677C317.177,28.096 315.411,26 313.235,26L220.83,26C218.655,26 216.889,28.096 216.889,30.677L216.889,110.656C216.889,113.238 218.655,115.334 220.83,115.334L313.235,115.334C315.411,115.334 317.177,113.238 317.177,110.656L317.177,30.677Z"/>
            </clipPath>
            <g clip-path="url(#_clip1)">
                <g transform="matrix(0.780563,0,0,0.945132,60.7688,4.48208)">
                    <rect x="208.192" y="30.723" width="112.421" height="78.705" style="fill:#090d07;"/>
                </g>
            </g>
        </g>
        <g id="path25" transform="matrix(1.84076,0,0,1.93233,275.894,210.085)">
            <path d="M40,32L24,32C23.4,32 23,32.4 23,33L23,36C23,36.6 23.4,37 24,37L40,37C40.6,37 41,36.6 41,36L41,33C41,32.4 40.6,32 40,32Z" style="fill:#349c0d;fill-rule:nonzero;"/>
        </g>
        <g id="path251" serif:id="path25" transform="matrix(1.84076,0,0,1.93233,250.305,210.085)">
            <path d="M26.998,32L24,32C23.4,32 23,32.4 23,33L23,36C23,36.6 23.4,37 24,37L26.998,37C27.598,37 27.998,36.6 27.998,36L27.998,33C27.998,32.4 27.598,32 26.998,32Z" style="fill:#349c0d;fill-rule:nonzero;"/>
        </g>
        <g id="path252" serif:id="path25" transform="matrix(1.84076,0,0,1.93233,250.305,181.1)">
            <path d="M26.998,32L24,32C23.4,32 23,32.4 23,33L23,36C23,36.6 23.4,37 24,37L26.998,37C27.598,37 27.998,36.6 27.998,36L27.998,33C27.998,32.4 27.598,32 26.998,32Z" style="fill:#349c0d;fill-rule:nonzero;"/>
        </g>
    </g>
</svg>
