<?xml version="1.0" encoding="UTF-8" standalone="no"?>
<!DOCTYPE svg PUBLIC "-//W3C//DTD SVG 1.1//EN" "http://www.w3.org/Graphics/SVG/1.1/DTD/svg11.dtd">
<svg width="100%" height="100%" viewBox="0 0 475 130" version="1.1" xmlns="http://www.w3.org/2000/svg" xmlns:xlink="http://www.w3.org/1999/xlink" xml:space="preserve" xmlns:serif="http://www.serif.com/" style="fill-rule:evenodd;clip-rule:evenodd;stroke-linejoin:round;stroke-miterlimit:2;">
    <g id="Header" transform="matrix(1.33452,0,0,1.06614,-349.45,-214.603)">
        <rect x="261.855" y="201.29" width="355.484" height="121.935" style="fill:none;"/>
        <clipPath id="_clip1">
            <rect x="261.855" y="201.29" width="355.484" height="121.935"/>
        </clipPath>
        <g clip-path="url(#_clip1)">
            <g transform="matrix(0.749335,0,0,0.937965,264.595,242.092)">
                <g transform="matrix(64,0,0,64,146.799,51.5637)">
                    <path d="M0.704,-0.538C0.763,-0.538 0.807,-0.527 0.835,-0.506C0.862,-0.485 0.876,-0.447 0.876,-0.394L0.876,-0.015C0.876,-0.005 0.871,-0 0.861,-0L0.812,-0C0.801,-0 0.796,-0.005 0.796,-0.015L0.796,-0.385C0.796,-0.418 0.789,-0.442 0.776,-0.455C0.762,-0.468 0.737,-0.474 0.702,-0.474C0.681,-0.474 0.661,-0.473 0.641,-0.47C0.62,-0.468 0.601,-0.466 0.584,-0.463C0.567,-0.46 0.552,-0.456 0.54,-0.453C0.527,-0.45 0.519,-0.447 0.514,-0.446L0.514,-0.015C0.514,-0.005 0.509,-0 0.5,-0L0.451,-0C0.441,-0 0.436,-0.005 0.436,-0.015L0.436,-0.385C0.436,-0.418 0.429,-0.442 0.415,-0.455C0.401,-0.468 0.376,-0.474 0.341,-0.474C0.32,-0.474 0.3,-0.473 0.28,-0.47C0.259,-0.468 0.241,-0.466 0.224,-0.463C0.206,-0.46 0.192,-0.456 0.18,-0.453C0.167,-0.45 0.159,-0.447 0.154,-0.446L0.154,-0.015C0.154,-0.005 0.149,-0 0.14,-0L0.09,-0C0.08,-0 0.075,-0.005 0.075,-0.015L0.075,-0.43C0.075,-0.44 0.075,-0.449 0.076,-0.456C0.077,-0.463 0.079,-0.47 0.082,-0.476C0.085,-0.482 0.091,-0.487 0.098,-0.492C0.105,-0.497 0.114,-0.501 0.127,-0.505C0.14,-0.51 0.155,-0.514 0.173,-0.518C0.192,-0.522 0.211,-0.526 0.231,-0.529C0.25,-0.532 0.27,-0.534 0.29,-0.536C0.309,-0.537 0.327,-0.538 0.343,-0.538C0.406,-0.538 0.452,-0.525 0.479,-0.5C0.493,-0.505 0.51,-0.51 0.529,-0.515C0.548,-0.52 0.569,-0.524 0.59,-0.527C0.611,-0.53 0.631,-0.533 0.651,-0.535C0.671,-0.537 0.689,-0.538 0.704,-0.538Z" style="fill:#404040;fill-rule:nonzero;"/>
                </g>
                <g transform="matrix(64,0,0,64,206.895,51.5637)">
                    <path d="M0.293,-0.537C0.329,-0.537 0.359,-0.535 0.382,-0.531C0.405,-0.526 0.424,-0.52 0.439,-0.512C0.452,-0.505 0.462,-0.498 0.469,-0.489C0.475,-0.48 0.481,-0.47 0.484,-0.459C0.487,-0.448 0.489,-0.437 0.49,-0.426C0.491,-0.415 0.491,-0.403 0.491,-0.391L0.491,-0.104C0.491,-0.087 0.49,-0.072 0.488,-0.061C0.485,-0.05 0.481,-0.04 0.475,-0.033C0.469,-0.026 0.461,-0.02 0.45,-0.015C0.439,-0.01 0.425,-0.006 0.408,-0.002C0.393,0.001 0.375,0.005 0.352,0.008C0.329,0.011 0.305,0.013 0.278,0.013C0.257,0.013 0.233,0.012 0.206,0.01C0.179,0.008 0.154,0.002 0.131,-0.009C0.108,-0.019 0.088,-0.035 0.073,-0.058C0.057,-0.08 0.049,-0.111 0.049,-0.152C0.049,-0.184 0.054,-0.21 0.063,-0.229C0.072,-0.248 0.085,-0.264 0.102,-0.275C0.119,-0.285 0.138,-0.294 0.161,-0.299C0.183,-0.304 0.207,-0.309 0.232,-0.313L0.411,-0.34L0.411,-0.387C0.411,-0.403 0.409,-0.417 0.406,-0.43C0.403,-0.443 0.392,-0.452 0.375,-0.459C0.366,-0.463 0.354,-0.466 0.339,-0.468C0.324,-0.47 0.306,-0.471 0.284,-0.471C0.245,-0.471 0.21,-0.467 0.179,-0.46C0.147,-0.453 0.12,-0.446 0.099,-0.441C0.09,-0.438 0.085,-0.441 0.083,-0.448L0.074,-0.493C0.073,-0.498 0.074,-0.501 0.077,-0.503C0.08,-0.505 0.082,-0.506 0.084,-0.507C0.092,-0.509 0.103,-0.512 0.117,-0.516C0.131,-0.519 0.147,-0.523 0.166,-0.526C0.185,-0.529 0.205,-0.531 0.227,-0.534C0.248,-0.536 0.27,-0.537 0.293,-0.537ZM0.233,-0.247C0.218,-0.245 0.204,-0.242 0.192,-0.239C0.179,-0.236 0.169,-0.231 0.16,-0.224C0.151,-0.217 0.143,-0.208 0.139,-0.197C0.134,-0.186 0.131,-0.171 0.131,-0.153C0.131,-0.128 0.136,-0.108 0.145,-0.095C0.154,-0.081 0.166,-0.07 0.181,-0.064C0.195,-0.057 0.211,-0.052 0.228,-0.051C0.245,-0.05 0.262,-0.049 0.279,-0.049C0.301,-0.049 0.323,-0.051 0.346,-0.054C0.369,-0.057 0.391,-0.062 0.412,-0.069L0.412,-0.275L0.233,-0.247Z" style="fill:#404040;fill-rule:nonzero;"/>
                </g>
                <g transform="matrix(64,0,0,64,242.351,51.5637)">
                    <path d="M0.154,-0.525C0.164,-0.525 0.169,-0.52 0.169,-0.51L0.169,-0.015C0.169,-0.005 0.164,-0 0.154,-0L0.105,-0C0.095,-0 0.09,-0.005 0.09,-0.015L0.09,-0.51C0.09,-0.52 0.095,-0.525 0.105,-0.525L0.154,-0.525ZM0.154,-0.752C0.164,-0.752 0.169,-0.747 0.169,-0.737L0.169,-0.629C0.169,-0.62 0.164,-0.615 0.154,-0.615L0.105,-0.615C0.095,-0.615 0.09,-0.62 0.09,-0.629L0.09,-0.737C0.09,-0.747 0.095,-0.752 0.105,-0.752L0.154,-0.752Z" style="fill:#404040;fill-rule:nonzero;"/>
                </g>
                <g transform="matrix(64,0,0,64,258.479,51.5637)">
                    <path d="M0.343,-0.538C0.402,-0.538 0.446,-0.527 0.473,-0.506C0.501,-0.485 0.515,-0.447 0.515,-0.394L0.515,-0.015C0.515,-0.005 0.51,-0 0.5,-0L0.451,-0C0.441,-0 0.436,-0.005 0.436,-0.015L0.436,-0.385C0.436,-0.418 0.429,-0.442 0.415,-0.455C0.401,-0.468 0.376,-0.474 0.341,-0.474C0.32,-0.474 0.3,-0.473 0.28,-0.47C0.259,-0.468 0.241,-0.466 0.224,-0.463C0.206,-0.46 0.192,-0.456 0.18,-0.453C0.167,-0.45 0.159,-0.447 0.154,-0.446L0.154,-0.015C0.154,-0.005 0.149,-0 0.14,-0L0.09,-0C0.08,-0 0.075,-0.005 0.075,-0.015L0.075,-0.43C0.075,-0.44 0.075,-0.449 0.076,-0.456C0.077,-0.463 0.079,-0.47 0.082,-0.476C0.085,-0.482 0.091,-0.487 0.098,-0.492C0.105,-0.497 0.114,-0.501 0.127,-0.505C0.14,-0.51 0.155,-0.514 0.173,-0.518C0.192,-0.522 0.211,-0.526 0.231,-0.529C0.25,-0.532 0.27,-0.534 0.29,-0.536C0.309,-0.537 0.327,-0.538 0.343,-0.538Z" style="fill:#404040;fill-rule:nonzero;"/>
                </g>
                <path d="M311.855,3.436C313.562,3.436 315.087,3.542 316.431,3.756C317.775,3.969 318.81,4.182 319.535,4.396C320.047,4.566 320.282,4.865 320.239,5.292L319.919,7.532C319.877,7.83 319.77,8.033 319.599,8.14C319.429,8.246 319.237,8.278 319.023,8.236C318.383,8.108 317.509,7.958 316.399,7.788C315.29,7.617 314.117,7.532 312.879,7.532C312.026,7.532 311.269,7.596 310.607,7.724C309.946,7.852 309.381,8.086 308.911,8.428C308.058,9.068 307.631,10.198 307.631,11.82L307.631,17.964L317.103,17.964C317.743,17.964 318.063,18.284 318.063,18.924L318.063,21.1C318.063,21.74 317.743,22.06 317.103,22.06L307.631,22.06L307.631,50.604C307.631,51.244 307.333,51.564 306.735,51.564L303.535,51.564C302.895,51.564 302.575,51.244 302.575,50.604L302.575,22.06L297.583,22.06C296.943,22.06 296.623,21.74 296.623,21.1L296.623,18.924C296.623,18.284 296.943,17.964 297.583,17.964L302.575,17.964L302.575,12.332C302.575,9.26 303.333,7.009 304.847,5.58C306.362,4.15 308.698,3.436 311.855,3.436Z" style="fill:#404040;fill-rule:nonzero;stroke:#404040;stroke-width:1px;"/>
                <path d="M338.351,17.132C338.522,17.132 338.714,17.185 338.927,17.292C339.141,17.398 339.247,17.665 339.247,18.092L339.247,20.844C339.247,21.356 339.055,21.612 338.671,21.612C336.538,21.612 334.575,21.697 332.783,21.868C330.991,22.038 329.199,22.358 327.407,22.828L327.407,50.604C327.407,51.244 327.109,51.564 326.511,51.564L323.247,51.564C322.65,51.564 322.351,51.244 322.351,50.604L322.351,23.916C322.351,22.508 322.533,21.505 322.895,20.908C323.258,20.31 323.994,19.756 325.103,19.244C325.786,18.945 326.639,18.657 327.663,18.38C328.687,18.102 329.743,17.878 330.831,17.708C331.919,17.537 332.986,17.398 334.031,17.292C335.077,17.185 335.983,17.132 336.751,17.132L338.351,17.132Z" style="fill:#404040;fill-rule:nonzero;stroke:#404040;stroke-width:1px;"/>
                <path d="M357.103,17.196C359.407,17.196 361.306,17.334 362.799,17.612C364.293,17.889 365.509,18.284 366.447,18.796C367.258,19.222 367.887,19.724 368.335,20.3C368.783,20.876 369.114,21.505 369.327,22.188C369.541,22.87 369.669,23.574 369.711,24.3C369.754,25.025 369.775,25.772 369.775,26.54L369.775,44.908C369.775,46.017 369.701,46.934 369.551,47.66C369.402,48.385 369.135,48.982 368.751,49.452C368.367,49.921 367.834,50.305 367.151,50.604C366.469,50.902 365.573,51.18 364.463,51.436C363.525,51.649 362.33,51.862 360.879,52.076C359.429,52.289 357.85,52.396 356.143,52.396C354.778,52.396 353.242,52.332 351.535,52.204C349.829,52.076 348.229,51.681 346.735,51.02C345.242,50.358 343.994,49.313 342.991,47.884C341.989,46.454 341.487,44.438 341.487,41.836C341.487,39.788 341.786,38.145 342.383,36.908C342.981,35.67 343.813,34.7 344.879,33.996C345.946,33.292 347.194,32.769 348.623,32.428C350.053,32.086 351.578,31.788 353.199,31.532L364.655,29.804L364.655,26.796C364.655,25.772 364.549,24.854 364.335,24.044C364.122,23.233 363.461,22.614 362.351,22.188C361.754,21.932 360.986,21.74 360.047,21.612C359.109,21.484 357.935,21.42 356.527,21.42C354.053,21.42 351.802,21.654 349.775,22.124C347.749,22.593 346.053,22.998 344.687,23.34C344.133,23.51 343.791,23.361 343.663,22.892L343.087,20.012C343.002,19.713 343.055,19.5 343.247,19.372C343.439,19.244 343.599,19.158 343.727,19.116C344.239,18.988 344.943,18.806 345.839,18.572C346.735,18.337 347.781,18.124 348.975,17.932C350.17,17.74 351.461,17.569 352.847,17.42C354.234,17.27 355.653,17.196 357.103,17.196ZM353.263,35.756C352.282,35.884 351.397,36.054 350.607,36.268C349.818,36.481 349.135,36.801 348.559,37.228C347.983,37.654 347.535,38.23 347.215,38.956C346.895,39.681 346.735,40.62 346.735,41.772C346.735,43.393 347.034,44.641 347.631,45.516C348.229,46.39 348.986,47.052 349.903,47.5C350.821,47.948 351.834,48.214 352.943,48.3C354.053,48.385 355.141,48.428 356.207,48.428C357.615,48.428 359.045,48.332 360.495,48.14C361.946,47.948 363.354,47.617 364.719,47.148L364.719,33.964L353.263,35.756Z" style="fill:#404040;fill-rule:nonzero;stroke:#404040;stroke-width:1px;"/>
                <path d="M418.863,17.132C422.661,17.132 425.445,17.814 427.215,19.18C428.986,20.545 429.871,22.934 429.871,26.348L429.871,50.604C429.871,51.244 429.551,51.564 428.911,51.564L425.775,51.564C425.093,51.564 424.751,51.244 424.751,50.604L424.751,26.924C424.751,24.79 424.314,23.308 423.439,22.476C422.565,21.644 420.997,21.228 418.735,21.228C417.413,21.228 416.101,21.302 414.799,21.452C413.498,21.601 412.293,21.772 411.183,21.964C410.074,22.156 409.125,22.358 408.335,22.572C407.546,22.785 407.002,22.934 406.703,23.02L406.703,50.604C406.703,51.244 406.405,51.564 405.807,51.564L402.671,51.564C402.031,51.564 401.711,51.244 401.711,50.604L401.711,26.924C401.711,24.79 401.263,23.308 400.367,22.476C399.471,21.644 397.893,21.228 395.631,21.228C394.309,21.228 392.997,21.302 391.695,21.452C390.394,21.601 389.199,21.772 388.111,21.964C387.023,22.156 386.085,22.358 385.295,22.572C384.506,22.785 383.962,22.934 383.663,23.02L383.663,50.604C383.663,51.244 383.365,51.564 382.767,51.564L379.567,51.564C378.927,51.564 378.607,51.244 378.607,50.604L378.607,24.044C378.607,23.404 378.629,22.849 378.671,22.38C378.714,21.91 378.842,21.484 379.055,21.1C379.269,20.716 379.599,20.374 380.047,20.076C380.495,19.777 381.125,19.5 381.935,19.244C382.746,18.945 383.738,18.668 384.911,18.412C386.085,18.156 387.301,17.932 388.559,17.74C389.818,17.548 391.077,17.398 392.335,17.292C393.594,17.185 394.735,17.132 395.759,17.132C399.813,17.132 402.714,17.942 404.463,19.564C405.359,19.222 406.426,18.902 407.663,18.604C408.901,18.305 410.191,18.049 411.535,17.836C412.879,17.622 414.191,17.452 415.471,17.324C416.751,17.196 417.882,17.132 418.863,17.132Z" style="fill:#404040;fill-rule:nonzero;stroke:#404040;stroke-width:1px;"/>
                <path d="M452.207,17.132C455.578,17.132 458.277,17.622 460.303,18.604C462.33,19.585 463.877,20.993 464.943,22.828C465.797,24.278 466.351,25.964 466.607,27.884C466.863,29.804 466.991,31.873 466.991,34.092L466.991,37.228C466.991,37.398 466.895,37.58 466.703,37.772C466.511,37.964 466.33,38.06 466.159,38.06L442.671,38.06C442.671,39.852 442.831,41.281 443.151,42.348C443.471,43.414 443.973,44.374 444.655,45.228C445.594,46.422 446.842,47.233 448.399,47.66C449.957,48.086 451.866,48.3 454.127,48.3C456.09,48.3 457.754,48.15 459.119,47.852C460.485,47.553 461.914,47.169 463.407,46.7C463.621,46.614 463.749,46.572 463.791,46.572L463.983,46.572C464.239,46.572 464.431,46.742 464.559,47.084L465.263,49.58C465.349,49.878 465.317,50.092 465.167,50.22C465.018,50.348 464.837,50.454 464.623,50.54C463.343,51.094 461.722,51.542 459.759,51.884C457.797,52.225 455.749,52.396 453.615,52.396C450.458,52.396 447.845,52.033 445.775,51.308C443.706,50.582 442.042,49.484 440.783,48.012C439.525,46.54 438.639,44.705 438.127,42.508C437.615,40.31 437.359,37.74 437.359,34.796C437.359,32.108 437.541,29.676 437.903,27.5C438.266,25.324 438.981,23.468 440.047,21.932C441.114,20.396 442.618,19.212 444.559,18.38C446.501,17.548 449.05,17.132 452.207,17.132ZM452.079,21.164C449.519,21.164 447.567,21.558 446.223,22.348C444.879,23.137 443.93,24.556 443.375,26.604C443.034,27.798 442.831,29.004 442.767,30.22C442.703,31.436 442.65,32.62 442.607,33.772L461.679,33.772C461.637,32.534 461.573,31.329 461.487,30.156C461.402,28.982 461.189,27.798 460.847,26.604C460.293,24.556 459.343,23.137 457.999,22.348C456.655,21.558 454.682,21.164 452.079,21.164Z" style="fill:#404040;fill-rule:nonzero;stroke:#404040;stroke-width:1px;"/>
            </g>
            <g transform="matrix(0.956399,0,0,1.00874,54.4223,190.973)">
                <path d="M317.177,30.677C317.177,28.096 315.411,26 313.235,26L220.83,26C218.655,26 216.889,28.096 216.889,30.677L216.889,110.656C216.889,113.238 218.655,115.334 220.83,115.334L313.235,115.334C315.411,115.334 317.177,113.238 317.177,110.656L317.177,30.677Z" style="fill:#349c0d;"/>
                <clipPath id="_clip2">
                    <path d="M317.177,30.677C317.177,28.096 315.411,26 313.235,26L220.83,26C218.655,26 216.889,28.096 216.889,30.677L216.889,110.656C216.889,113.238 218.655,115.334 220.83,115.334L313.235,115.334C315.411,115.334 317.177,113.238 317.177,110.656L317.177,30.677Z"/>
                </clipPath>
                <g clip-path="url(#_clip2)">
                    <g transform="matrix(0.780563,0,0,0.945132,60.7688,4.48208)">
                        <rect x="208.192" y="30.723" width="112.421" height="78.705" style="fill:#090d07;"/>
                    </g>
                </g>
            </g>
            <g id="path25" transform="matrix(1.54372,0,0,1.93233,273.629,210.085)">
                <path d="M40,32L24,32C23.4,32 23,32.4 23,33L23,36C23,36.6 23.4,37 24,37L40,37C40.6,37 41,36.6 41,36L41,33C41,32.4 40.6,32 40,32Z" style="fill:#349c0d;fill-rule:nonzero;"/>
            </g>
            <g id="path251" serif:id="path25" transform="matrix(1.54372,0,0,1.93233,252.169,210.085)">
                <path d="M26.998,32L24,32C23.4,32 23,32.4 23,33L23,36C23,36.6 23.4,37 24,37L26.998,37C27.598,37 27.998,36.6 27.998,36L27.998,33C27.998,32.4 27.598,32 26.998,32Z" style="fill:#349c0d;fill-rule:nonzero;"/>
            </g>
            <g id="path252" serif:id="path25" transform="matrix(1.54372,0,0,1.93233,252.169,181.1)">
                <path d="M26.998,32L24,32C23.4,32 23,32.4 23,33L23,36C23,36.6 23.4,37 24,37L26.998,37C27.598,37 27.998,36.6 27.998,36L27.998,33C27.998,32.4 27.598,32 26.998,32Z" style="fill:#349c0d;fill-rule:nonzero;"/>
            </g>
        </g>
    </g>
</svg>
